<?xml version="1.0" encoding="utf-8"?>
<!-- Generator: Adobe Illustrator 17.0.0, SVG Export Plug-In . SVG Version: 6.00 Build 0)  -->
<!DOCTYPE svg PUBLIC "-//W3C//DTD SVG 1.1//EN" "http://www.w3.org/Graphics/SVG/1.1/DTD/svg11.dtd">
<svg version="1.1" id="Layer_1" xmlns="http://www.w3.org/2000/svg" xmlns:xlink="http://www.w3.org/1999/xlink" x="0px" y="0px"
	 width="176px" height="44px" viewBox="0 0 176 44" enable-background="new 0 0 176 44" xml:space="preserve">
<title>D98C1A87-8111-4745-8AC3-8C0D2AD3B92E</title>
<desc>Created with sketchtool.</desc>
<g id="Symbols">
	<g id="Logo">
		<g>
			<g id="Symbol">
				<path id="Fill-1" fill="#A9A9A8" d="M37.485,43.898H11.324V31.55h3.547v9.073h22.648c5.833,0,7.538-1.398,7.538-6.276
					c0-4.911-1.637-6.242-7.538-6.242H0v-3.274h37.485c6.31,0,10.54,1.637,10.54,9.516C48.025,40.112,46.217,43.898,37.485,43.898"
					/>
				<path id="Fill-3" fill="#A9A9A8" d="M48.025,9.516c0,7.913-4.229,9.516-10.54,9.516H0v-3.274h37.519
					c5.901,0,7.538-1.364,7.538-6.242c0-4.843-1.705-6.242-7.538-6.242H14.871v9.073h-3.547V0h26.161
					C46.217,0,48.025,3.82,48.025,9.516"/>
			</g>
			<g id="Name" transform="translate(67.833333, 11.000000)">
				<path id="Fill-5" fill="#A9A9A8" d="M15.774,15.628c0,4.376-2.55,5.73-7.084,5.73H4.187H0.756V0.641h7.556
					c4.313,0,6.738,1.322,6.738,5.51c0,2.487-0.85,3.778-2.456,4.408C14.672,11.22,15.774,12.732,15.774,15.628L15.774,15.628z
					 M8.343,18.588c2.96,0,3.873-0.787,3.873-3.211s-0.913-3.369-3.873-3.369H4.187v6.58H8.343z M11.555,6.372
					c0-2.361-0.85-3.023-3.589-3.023H4.187v5.919h3.747C10.705,9.3,11.555,8.733,11.555,6.372L11.555,6.372z"/>
				<polygon id="Fill-7" fill="#A9A9A8" points="31.705,14.085 31.705,21.327 28.273,21.327 28.273,14.085 21.598,0.61 25.282,0.61 
					29.974,10.528 34.665,0.61 38.38,0.61 				"/>
				<polygon id="Fill-9" fill="#A9A9A8" points="59.821,0.61 59.821,3.475 54.122,3.475 54.122,21.327 50.691,21.327 50.691,3.475 
					45.023,3.475 45.023,0.61 				"/>
				<path id="Fill-11" fill="#A9A9A8" d="M83.403,10.969c0,6.801-1.574,10.705-8.595,10.705s-8.595-3.904-8.595-10.705
					s1.574-10.705,8.595-10.705C81.829,0.232,83.403,4.136,83.403,10.969 M69.77,10.969c0,5.51,0.913,7.682,5.038,7.682
					c4.125,0,5.038-2.141,5.038-7.682s-0.913-7.682-5.038-7.682C70.684,3.286,69.77,5.427,69.77,10.969"/>
				<polygon id="Fill-13" fill="#A9A9A8" points="103.837,0.61 103.837,16.699 95.808,0.61 91.526,0.61 91.526,21.327 
					94.832,21.327 94.832,5.553 102.703,21.327 107.143,21.327 107.143,0.61 				"/>
			</g>
		</g>
	</g>
</g>
</svg>
